<svg width="64" height="64" xmlns="http://www.w3.org/2000/svg">

 <g>
  <title>background</title>
  <rect fill="none" id="canvas_background" height="402" width="582" y="-1" x="-1"/>
 </g>
 <g>
  <title>Layer 1</title>
  <g stroke="null" id="COOKIE_1_">
   <path stroke="null" id="svg_1" fill="#D5944B" d="m32,4.444444c-0.682,0 -1.3795,0.032722 -2.1235,0.099889c0.235944,1.012667 0.354778,2.047722 0.354778,3.098278c0.001722,3.676944 -1.429444,7.136889 -4.033444,9.740889c-1.856556,1.856556 -4.133333,3.118944 -6.647778,3.690722c-1.546556,6.702889 -8.046222,11.457944 -15.102167,10.574444c-0.001722,0.115389 -0.003444,0.234222 -0.003444,0.351333c0,15.193444 12.362111,27.555555 27.555555,27.555555s27.555555,-12.362111 27.555555,-27.555555s-12.362111,-27.555555 -27.555555,-27.555555z"/>
   <circle stroke="null" id="svg_2" r="3.444444" fill="#443017" cy="16.4535" cx="38.387722"/>
   <circle stroke="null" id="svg_3" r="3.444444" fill="#443017" cy="27.5515" cx="49.006944"/>
   <circle stroke="null" id="svg_4" r="3.444444" fill="#443017" cy="30.995944" cx="31.498833"/>
   <circle stroke="null" id="svg_5" r="3.444444" fill="#443017" cy="41.041666" cx="18.223944"/>
   <circle stroke="null" id="svg_6" r="3.444444" fill="#443017" cy="49.725111" cx="32"/>
   <circle stroke="null" id="svg_7" r="3.444444" fill="#443017" cy="41.041666" cx="43.840277"/>
   <path stroke="null" id="svg_8" fill="#26251D" d="m32,63c-17.093055,0 -31,-13.906944 -31,-31c0,-0.869722 0.058556,-1.723944 0.127444,-2.573c0.041333,-0.513222 0.311722,-0.979944 0.735389,-1.274444c0.421944,-0.292778 0.950667,-0.380611 1.450111,-0.244556c6.189667,1.749778 12.239833,-2.531667 13.051,-8.547389c0.105056,-0.768111 0.709556,-1.374333 1.477667,-1.475944c2.252667,-0.301389 4.298667,-1.3175 5.921,-2.936389c1.951278,-1.953 3.025944,-4.548389 3.024222,-7.303944c0,-1.343333 -0.258333,-2.655667 -0.769833,-3.902556c-0.2015,-0.489111 -0.167056,-1.043667 0.094722,-1.5035s0.718167,-0.775 1.241722,-0.854222c1.734278,-0.261778 3.210222,-0.384056 4.646556,-0.384056c17.093055,0 31,13.906944 31,31s-13.906944,31 -31,31zm-27.552111,-31.353055c-0.001722,0.117111 -0.003444,0.235944 -0.003444,0.353056c0,15.193444 12.362111,27.555555 27.555555,27.555555s27.555555,-12.362111 27.555555,-27.555555s-12.362111,-27.555555 -27.555555,-27.555555c-0.682,0 -1.3795,0.032722 -2.1235,0.099889c0.235944,1.012667 0.354778,2.047722 0.354778,3.098278c0.001722,3.676944 -1.429444,7.136889 -4.033444,9.740889c-1.856556,1.856556 -4.133333,3.118944 -6.647778,3.690722c-1.548278,6.701167 -8.046222,11.457944 -15.102167,10.572722z"/>
  </g>
 </g>
</svg>