<svg width="512" height="512" xmlns="http://www.w3.org/2000/svg">
 <g>
  <title>background</title>
  <rect x="-1" y="-1" width="514" height="514" id="canvas_background" fill="none"/>
 </g>

 <g>
  <title>Layer 1</title>
  <g stroke="null" id="COOKIE_1_">
   <path stroke="null" d="m255.999993,29.333296c-5.61,0 -11.3475,0.269231 -17.4675,0.821676c1.940797,8.330027 2.918352,16.84423 2.918352,25.485851c0.014148,30.245878 -11.758379,58.706674 -33.178378,80.126674c-15.271621,15.271703 -33.999972,25.655796 -54.683268,30.359148c-12.721703,55.136674 -66.186729,94.250877 -124.227524,86.983377c-0.014148,0.949094 -0.028379,1.926648 -0.028379,2.889973c0,124.978294 101.688404,226.666615 226.666697,226.666615s226.666615,-101.688322 226.666615,-226.666615s-101.688322,-226.666697 -226.666615,-226.666697z" fill="#D5944B" id="svg_1"/>
   <circle stroke="null" cx="308.544157" cy="128.117497" fill="#443017" r="28.33333" id="svg_2"/>
   <circle stroke="null" cx="395.895819" cy="219.407494" fill="#443017" r="28.333326" id="svg_3"/>
   <circle stroke="null" cx="251.877491" cy="247.740823" fill="#443017" r="28.333326" id="svg_4"/>
   <circle stroke="null" cx="142.680826" cy="330.374986" fill="#443017" r="28.33333" id="svg_5"/>
   <circle stroke="null" cx="255.999993" cy="401.803322" fill="#443017" r="28.333326" id="svg_6"/>
   <circle stroke="null" cx="353.395818" cy="330.374986" fill="#443017" r="28.333334" id="svg_7"/>
   <path stroke="null" d="m255.999993,510.999987c-140.604117,0 -254.999993,-114.395794 -254.999993,-254.999993c0,-7.154148 0.481703,-14.180796 1.048297,-21.164999c0.340055,-4.221648 2.564231,-8.060797 6.049176,-10.483296c3.470879,-2.408352 7.820027,-3.130824 11.928324,-2.011703c50.915026,14.393351 100.682552,-20.825027 107.354997,-70.309174c0.864203,-6.318324 5.836703,-11.304972 12.155027,-12.140796c18.530027,-2.479176 35.360026,-10.8375 48.704999,-24.154175c16.050851,-16.065 24.890796,-37.414175 24.876648,-60.080877c0,-11.049972 -2.124973,-21.844945 -6.332472,-32.10162c-1.6575,-4.023324 -1.374203,-8.585027 0.779148,-12.3675s5.907527,-6.375 10.214148,-7.026648c14.265851,-2.153352 26.40673,-3.159203 38.221702,-3.159203c140.604117,0 254.999993,114.395794 254.999993,254.999993s-114.395794,254.999993 -254.999993,254.999993zm-226.638318,-257.904196c-0.014148,0.963406 -0.028379,1.940879 -0.028379,2.904203c0,124.978294 101.688404,226.666697 226.666697,226.666697s226.666615,-101.688404 226.666615,-226.666697s-101.688322,-226.666615 -226.666615,-226.666615c-5.61,0 -11.3475,0.269148 -17.4675,0.821594c1.940797,8.330027 2.918352,16.84423 2.918352,25.485851c0.014148,30.245878 -11.758379,58.706674 -33.178378,80.126674c-15.271621,15.271703 -33.999972,25.655878 -54.683268,30.359148c-12.735851,55.122526 -66.186729,94.250877 -124.227524,86.969228l0,-0.000082z" fill="#26251D" id="svg_8"/>
  </g>
 </g>
</svg>